<?xml version="1.0" standalone="no"?>
<!DOCTYPE svg PUBLIC "-//W3C//DTD SVG 20010904//EN"
 "http://www.w3.org/TR/2001/REC-SVG-20010904/DTD/svg10.dtd">
<svg version="1.0" xmlns="http://www.w3.org/2000/svg"
 width="260.000000pt" height="260.000000pt" viewBox="0 0 260.000000 260.000000"
 preserveAspectRatio="xMidYMid meet">
<metadata>
Created by potrace 1.11, written by Peter Selinger 2001-2013
</metadata>
<g transform="translate(0.000000,260.000000) scale(0.100000,-0.100000)"
fill="#000000" stroke="none">
<path d="M1880 2440 c-19 -10 -75 -59 -124 -109 -82 -82 -91 -88 -110 -77 -12
7 -27 12 -33 11 -7 -2 -20 -3 -28 -4 -8 0 -75 -62 -150 -136 -116 -115 -135
-139 -135 -165 0 -17 4 -40 10 -50 8 -15 -71 -98 -544 -571 -304 -305 -558
-563 -563 -574 -6 -11 -14 -56 -17 -100 -4 -44 -9 -102 -11 -130 -3 -27 -7
-80 -10 -117 -2 -37 -9 -96 -14 -130 -20 -121 -20 -126 -1 -143 13 -11 28 -15
47 -11 15 3 46 8 68 11 22 3 53 8 69 11 15 4 49 7 75 9 256 17 323 23 349 32
12 5 273 259 580 565 415 413 563 554 573 547 8 -5 29 -9 48 -9 30 0 48 14
161 128 70 70 132 136 138 148 8 15 8 31 0 58 l-12 37 97 97 c53 53 101 110
106 125 14 36 14 88 0 123 -16 43 -387 410 -432 429 -49 20 -94 18 -137 -5z"/>
</g>
</svg>
